<svg width="16" height="12" viewBox="0 0 16 12" fill="none" xmlns="http://www.w3.org/2000/svg">
<path d="M8.20002 6.14666C8.55574 5.83875 8.84105 5.45792 9.0366 5.03001C9.23215 4.6021 9.33336 4.13713 9.33335 3.66666C9.33335 2.78261 8.98216 1.93476 8.35704 1.30964C7.73192 0.684518 6.88408 0.333328 6.00002 0.333328C5.11597 0.333328 4.26812 0.684518 3.643 1.30964C3.01788 1.93476 2.66669 2.78261 2.66669 3.66666C2.66668 4.13713 2.76789 4.6021 2.96344 5.03001C3.15899 5.45792 3.4443 5.83875 3.80002 6.14666C2.86678 6.56925 2.075 7.25168 1.51934 8.11236C0.963684 8.97303 0.667668 9.97553 0.666687 11C0.666687 11.1768 0.736925 11.3464 0.861949 11.4714C0.986973 11.5964 1.15654 11.6667 1.33335 11.6667C1.51016 11.6667 1.67973 11.5964 1.80476 11.4714C1.92978 11.3464 2.00002 11.1768 2.00002 11C2.00002 9.93913 2.42145 8.92171 3.17159 8.17157C3.92174 7.42142 4.93915 6.99999 6.00002 6.99999C7.06089 6.99999 8.0783 7.42142 8.82845 8.17157C9.57859 8.92171 10 9.93913 10 11C10 11.1768 10.0703 11.3464 10.1953 11.4714C10.3203 11.5964 10.4899 11.6667 10.6667 11.6667C10.8435 11.6667 11.0131 11.5964 11.1381 11.4714C11.2631 11.3464 11.3334 11.1768 11.3334 11C11.3324 9.97553 11.0364 8.97303 10.4807 8.11236C9.92504 7.25168 9.13326 6.56925 8.20002 6.14666ZM6.00002 5.66666C5.60446 5.66666 5.21778 5.54936 4.88888 5.3296C4.55998 5.10984 4.30364 4.79748 4.15226 4.43203C4.00089 4.06658 3.96128 3.66444 4.03845 3.27648C4.11562 2.88852 4.3061 2.53215 4.58581 2.25245C4.86551 1.97274 5.22188 1.78226 5.60984 1.70509C5.9978 1.62792 6.39994 1.66753 6.76539 1.8189C7.13084 1.97028 7.4432 2.22662 7.66296 2.55552C7.88272 2.88442 8.00002 3.2711 8.00002 3.66666C8.00002 4.19709 7.78931 4.7058 7.41423 5.08087C7.03916 5.45595 6.53045 5.66666 6.00002 5.66666ZM12.4934 5.87999C12.92 5.39955 13.1987 4.80603 13.2959 4.17089C13.3931 3.53574 13.3046 2.88604 13.0412 2.29999C12.7778 1.71395 12.3505 1.21653 11.811 0.86761C11.2715 0.518695 10.6426 0.333157 10 0.333328C9.82321 0.333328 9.65364 0.403566 9.52862 0.52859C9.40359 0.653615 9.33335 0.823184 9.33335 0.999995C9.33335 1.17681 9.40359 1.34638 9.52862 1.4714C9.65364 1.59642 9.82321 1.66666 10 1.66666C10.5305 1.66666 11.0392 1.87738 11.4142 2.25245C11.7893 2.62752 12 3.13623 12 3.66666C11.9991 4.01682 11.9062 4.3606 11.7307 4.66361C11.5552 4.96662 11.3033 5.21825 11 5.39333C10.9012 5.45034 10.8186 5.53177 10.7603 5.62982C10.7019 5.72787 10.6697 5.83926 10.6667 5.95333C10.6639 6.0665 10.69 6.17853 10.7425 6.27883C10.7949 6.37914 10.8721 6.46443 10.9667 6.52666L11.2267 6.69999L11.3134 6.74666C12.117 7.12781 12.7949 7.73066 13.2673 8.4842C13.7398 9.23775 13.9871 10.1106 13.98 11C13.98 11.1768 14.0503 11.3464 14.1753 11.4714C14.3003 11.5964 14.4699 11.6667 14.6467 11.6667C14.8235 11.6667 14.9931 11.5964 15.1181 11.4714C15.2431 11.3464 15.3134 11.1768 15.3134 11C15.3188 9.97695 15.0626 8.9695 14.569 8.07337C14.0754 7.17724 13.3609 6.4222 12.4934 5.87999Z" fill="white"/>
</svg>
